<?xml version="1.0" standalone="no"?>
<!DOCTYPE svg PUBLIC "-//W3C//DTD SVG 20010904//EN"
 "http://www.w3.org/TR/2001/REC-SVG-20010904/DTD/svg10.dtd">
<svg version="1.0" xmlns="http://www.w3.org/2000/svg"
 width="1600.000000pt" height="602.000000pt" viewBox="0 0 1600.000000 602.000000"
 preserveAspectRatio="xMidYMid meet">

<g transform="translate(0.000000,602.000000) scale(0.100000,-0.100000)"
fill="#000000" stroke="none">
<path d="M2895 6014 c-242 -22 -375 -38 -375 -44 0 -4 28 -11 63 -14 253 -29
627 -134 885 -249 579 -259 1008 -698 1200 -1227 101 -276 137 -484 137 -785
-1 -327 -54 -611 -172 -910 -204 -520 -589 -948 -1029 -1146 -160 -71 -407
-137 -528 -140 -42 -1 -36 -3 34 -11 92 -10 398 -3 550 13 526 53 973 200
1305 428 604 414 894 1059 873 1943 -5 224 -3 214 -145 498 -411 821 -1180
1403 -2100 1589 -185 38 -565 68 -698 55z"/>
<path d="M1905 5801 c-94 -25 -389 -179 -553 -288 -605 -401 -1049 -1012
-1239 -1703 -85 -309 -122 -649 -103 -933 10 -148 26 -270 29 -219 1 29 30
145 78 311 101 355 275 721 467 981 82 111 126 161 250 286 410 410 943 628
1531 626 298 0 539 -45 855 -157 92 -33 329 -154 428 -219 190 -125 328 -245
452 -392 268 -319 406 -674 411 -1059 2 -123 10 -91 34 130 32 287 20 662 -30
936 -80 435 -269 813 -547 1089 -327 325 -767 515 -1360 590 -175 22 -647 36
-703 21z"/>
<path d="M2135 4529 c-165 -14 -402 -65 -558 -119 -869 -301 -1339 -1073
-1364 -2242 l-6 -256 33 -79 c213 -513 602 -984 1089 -1317 74 -51 322 -196
335 -196 3 0 38 -15 78 -34 297 -140 578 -219 919 -260 189 -22 346 -29 487
-20 l127 7 -50 14 c-316 88 -493 153 -724 264 -834 405 -1321 1095 -1357 1926
-41 949 540 1876 1356 2162 171 59 293 81 510 90 l145 6 -140 22 c-77 13 -192
27 -255 33 -132 11 -492 11 -625 -1z"/>
<path d="M12660 3080 l0 -1340 140 0 140 0 0 1340 0 1340 -140 0 -140 0 0
-1340z"/>
<path d="M14270 4175 c0 -96 0 -178 0 -182 0 -5 67 -9 150 -11 l150 -3 0 186
0 185 -150 0 -150 0 0 -175z"/>
<path d="M15270 3995 l0 -345 -195 0 -195 0 0 -120 0 -120 195 0 195 0 0 -835
0 -835 140 0 140 0 2 833 3 832 223 3 222 2 0 120 0 120 -222 2 -223 3 0 343
0 342 -142 0 -143 0 0 -345z"/>
<path d="M2810 3826 c-306 -82 -531 -304 -611 -606 -44 -168 -26 -383 46 -546
146 -329 502 -534 857 -494 203 23 360 100 508 249 168 169 244 353 243 586
-2 469 -374 837 -843 834 -86 -1 -137 -7 -200 -23z"/>
<path d="M7805 3673 c-122 -16 -290 -109 -396 -217 -60 -63 -124 -161 -141
-218 -6 -21 -15 -38 -20 -38 -4 0 -8 101 -8 225 l0 225 -140 0 -140 0 0 -955
0 -955 140 0 140 0 0 438 c0 240 5 478 10 527 33 283 186 523 405 632 71 36
182 63 259 63 l56 0 0 140 0 140 -67 -1 c-38 -1 -81 -4 -98 -6z"/>
<path d="M8905 3670 c-224 -39 -431 -161 -563 -332 -52 -68 -124 -205 -151
-288 -89 -278 -59 -630 73 -863 178 -313 470 -477 845 -477 292 0 506 85 679
269 68 73 170 232 184 289 2 10 -30 13 -147 13 l-150 1 -39 -57 c-53 -76 -145
-159 -215 -195 -95 -47 -172 -63 -306 -64 -213 0 -343 52 -485 194 -65 65 -94
103 -122 160 -45 94 -68 166 -71 222 l-2 43 804 3 804 2 -6 143 c-10 229 -56
386 -159 545 -87 133 -238 263 -375 323 -120 53 -210 70 -383 74 -91 2 -187 0
-215 -5z m405 -276 c218 -74 369 -245 425 -486 l13 -58 -659 0 -659 0 6 28
c60 266 210 444 434 517 127 42 313 41 440 -1z"/>
<path d="M11170 3670 c-77 -12 -208 -60 -275 -101 -60 -35 -176 -142 -213
-194 l-21 -30 -1 153 0 152 -140 0 -140 0 0 -1335 0 -1335 140 0 140 0 0 533
0 532 43 -50 c89 -105 188 -180 302 -228 169 -71 445 -75 650 -10 308 98 550
397 606 749 16 101 16 277 0 379 -35 217 -136 411 -293 561 -107 102 -194 153
-338 199 -74 23 -105 27 -245 30 -88 2 -185 0 -215 -5z m319 -261 c25 -6 84
-29 130 -51 66 -31 100 -56 160 -116 89 -90 132 -160 174 -280 26 -76 30 -105
35 -228 6 -201 -25 -331 -112 -468 -128 -201 -316 -300 -566 -300 -203 1 -327
49 -455 178 -94 95 -151 195 -186 326 -32 121 -32 329 0 449 73 275 271 466
521 501 75 10 233 4 299 -11z"/>
<path d="M14280 2695 l0 -955 140 0 140 0 0 955 0 955 -140 0 -140 0 0 -955z"/>
<path d="M5995 3203 c-10 -53 -99 -320 -148 -443 -72 -182 -220 -462 -322
-608 -133 -191 -332 -408 -489 -531 -318 -250 -705 -411 -1081 -450 -215 -22
-280 -23 -454 -6 -329 31 -580 101 -860 241 -243 121 -409 240 -597 428 -342
343 -524 759 -524 1198 0 67 -2 119 -5 116 -3 -3 -15 -72 -27 -154 -30 -208
-33 -735 -4 -919 78 -506 258 -886 566 -1195 187 -188 351 -296 665 -440 54
-25 203 -75 312 -105 252 -70 516 -109 835 -125 l197 -10 108 44 c823 336
1467 1044 1726 1896 94 310 127 542 127 891 0 188 -9 253 -25 172z"/>
<path d="M13300 2570 l0 -170 170 0 170 0 0 170 0 170 -170 0 -170 0 0 -170z"/>
<path d="M13650 2220 l0 -170 170 0 170 0 0 170 0 170 -170 0 -170 0 0 -170z"/>
<path d="M13300 1870 l0 -170 170 0 170 0 0 170 0 170 -170 0 -170 0 0 -170z"/>
</g>
</svg>
